<svg xmlns="http://www.w3.org/2000/svg" viewBox="0 0 32 32" width="32" height="32">
  <defs>
    <linearGradient id="cloudGradient" x1="0%" y1="0%" x2="100%" y2="100%">
      <stop offset="0%" style="stop-color:#4A90E2;stop-opacity:1" />
      <stop offset="100%" style="stop-color:#357ABD;stop-opacity:1" />
    </linearGradient>
    <linearGradient id="nodeGradient" x1="0%" y1="0%" x2="100%" y2="100%">
      <stop offset="0%" style="stop-color:#50C878;stop-opacity:1" />
      <stop offset="100%" style="stop-color:#228B22;stop-opacity:1" />
    </linearGradient>
  </defs>
  
  <!-- Background circle -->
  <circle cx="16" cy="16" r="15" fill="#f8f9fa" stroke="#e9ecef" stroke-width="2"/>
  
  <!-- Cloud shape (simplified) -->
  <path d="M8 12c0-2.2 1.8-4 4-4 1.1 0 2.1 0.4 2.8 1.1 0.7-1.2 2-2.1 3.5-2.1 2.2 0 4 1.8 4 4 0 0.3 0 0.6-0.1 0.9 1.2 0.4 2.1 1.5 2.1 2.8 0 1.7-1.3 3-3 3H10c-1.7 0-3-1.3-3-3 0-1.3 0.9-2.4 2.1-2.8C9 12.6 8.9 12.3 8 12z" fill="url(#cloudGradient)" opacity="0.7"/>
  
  <!-- Network nodes -->
  <circle cx="10" cy="20" r="2.5" fill="url(#nodeGradient)"/>
  <circle cx="16" cy="22" r="2.5" fill="url(#nodeGradient)"/>
  <circle cx="22" cy="20" r="2.5" fill="url(#nodeGradient)"/>
  <circle cx="16" cy="26" r="2" fill="url(#nodeGradient)"/>
  
  <!-- Network connections -->
  <line x1="10" y1="20" x2="16" y2="22" stroke="#357ABD" stroke-width="1.5" opacity="0.8"/>
  <line x1="16" y1="22" x2="22" y2="20" stroke="#357ABD" stroke-width="1.5" opacity="0.8"/>
  <line x1="16" y1="22" x2="16" y2="26" stroke="#357ABD" stroke-width="1.5" opacity="0.8"/>
  
  <!-- IP address dots (representing IPAM) -->
  <circle cx="12" cy="15" r="0.8" fill="#FF6B6B"/>
  <circle cx="16" cy="15" r="0.8" fill="#FF6B6B"/>
  <circle cx="20" cy="15" r="0.8" fill="#FF6B6B"/>
</svg>
